<svg width="400" height="167" viewBox="0 0 400 167" fill="none" xmlns="http://www.w3.org/2000/svg">
<g clip-path="url(#clip0_15_759)">
<path d="M216.021 0H200.422V167H216.021V0Z" fill="black"/>
<path d="M274.26 76.3819V61.9775L287.48 76.3819V90.9213V105.014L274.26 90.6092V76.3819Z" fill="black"/>
<path d="M274.252 0H258.753V76.3906H274.252V0Z" fill="black"/>
<path d="M274.252 90.6094H258.753V167H274.252V90.6094Z" fill="black"/>
<path d="M302.979 0H287.48V76.3906H302.979V0Z" fill="black"/>
<path d="M302.979 90.6094H287.48V167H302.979V90.6094Z" fill="black"/>
<path d="M384.501 76.3819V61.9775L371.281 76.3819V90.9213V105.014L384.501 90.6092V76.3819Z" fill="black"/>
<path d="M400 0H384.501V76.3906H400V0Z" fill="black"/>
<path d="M400 90.6094H384.501V167H400V90.6094Z" fill="black"/>
<path d="M371.273 0H355.774V76.3906H371.273V0Z" fill="black"/>
<path d="M371.273 90.6094H355.774V167H371.273V90.6094Z" fill="black"/>
<path d="M30.5476 0V11.1153L15.4993 0H0V7.93592V167H15.4993V19.397L30.5476 30.5124V167H46.0469V39.0471V22.568V0H30.5476Z" fill="black"/>
<path d="M142.199 0H142.191L127.794 10.6515L120.036 16.3778L112.295 10.6599L97.8894 0.016867V0H97.8727H82.3901V7.95278V167H97.8894V19.4139L106.917 26.0848L112.295 30.057V41.5012V167H127.794V39.9073V30.0485L133.164 26.0848L142.191 19.4055V167H157.699V7.94435V0H142.199Z" fill="black"/>
</g>
<defs>
<clipPath id="clip0_15_759">
<rect width="400" height="167" fill="white"/>
</clipPath>
</defs>
</svg>
