<svg width="150" height="62" viewBox="0 0 150 62" fill="none" xmlns="http://www.w3.org/2000/svg">
<g clip-path="url(#clip0_144_7940)">
<path d="M81.008 0H75.1582V62H81.008V0Z" fill="white"/>
<path d="M102.848 28.3575V23.0098L107.805 28.3575V33.7553V38.9872L102.848 33.6395V28.3575Z" fill="white"/>
<path d="M102.844 0H97.0322V28.3606H102.844V0Z" fill="white"/>
<path d="M102.844 33.6396H97.0322V62.0002H102.844V33.6396Z" fill="white"/>
<path d="M113.617 0H107.805V28.3606H113.617V0Z" fill="white"/>
<path d="M113.617 33.6396H107.805V62.0002H113.617V33.6396Z" fill="white"/>
<path d="M144.188 28.3575V23.0098L139.23 28.3575V33.7553V38.9872L144.188 33.6395V28.3575Z" fill="white"/>
<path d="M150 0H144.188V28.3606H150V0Z" fill="white"/>
<path d="M150 33.6396H144.188V62.0002H150V33.6396Z" fill="white"/>
<path d="M139.227 0H133.415V28.3606H139.227V0Z" fill="white"/>
<path d="M139.227 33.6396H133.415V62.0002H139.227V33.6396Z" fill="white"/>
<path d="M11.4554 0V4.12665L5.81223 0H0V2.94627V62H5.81223V7.20129L11.4554 11.3279V62H17.2676V14.4965V8.37855V0H11.4554Z" fill="white"/>
<path d="M53.3249 0H53.3218L47.9229 3.95445L45.0137 6.0804L42.1107 3.95758L36.7087 0.00626199V0H36.7024H30.8965V2.95253V62H36.7087V7.20755L40.094 9.68417L42.1107 11.1589V15.4076V62H47.9229V14.8159V11.1557L49.9365 9.68417L53.3218 7.20442V62H59.1372V2.9494V0H53.3249Z" fill="white"/>
</g>
<defs>
<clipPath id="clip0_144_7940">
<rect width="150" height="62" fill="white"/>
</clipPath>
</defs>
</svg>
