<svg width="122" height="51" viewBox="0 0 122 51" fill="none" xmlns="http://www.w3.org/2000/svg">
<g clip-path="url(#clip0_144_8023)">
<path d="M65.8867 0H61.1289V51H65.8867V0Z" fill="black"/>
<path d="M83.6494 23.3262V18.9272L87.6814 23.3262V27.7664V32.07L83.6494 27.6711V23.3262Z" fill="black"/>
<path d="M83.6472 0H78.9199V23.3289H83.6472V0Z" fill="black"/>
<path d="M83.6472 27.6714H78.9199V51.0002H83.6472V27.6714Z" fill="black"/>
<path d="M92.4089 0H87.6816V23.3289H92.4089V0Z" fill="black"/>
<path d="M92.4089 27.6714H87.6816V51.0002H92.4089V27.6714Z" fill="black"/>
<path d="M117.272 23.3262V18.9272L113.24 23.3262V27.7664V32.07L117.272 27.6711V23.3262Z" fill="black"/>
<path d="M122 0H117.272V23.3289H122V0Z" fill="black"/>
<path d="M122 27.6714H117.272V51.0002H122V27.6714Z" fill="black"/>
<path d="M113.238 0H108.511V23.3289H113.238V0Z" fill="black"/>
<path d="M113.238 27.6714H108.511V51.0002H113.238V27.6714Z" fill="black"/>
<path d="M9.31702 0V3.39451L4.72728 0H0V2.42354V51H4.72728V5.92364L9.31702 9.31815V51H14.0443V11.9246V6.89203V0H9.31702Z" fill="black"/>
<path d="M43.3707 0H43.3682L38.9771 3.25285L36.6109 5.00162L34.2498 3.25543L29.8562 0.00515099V0H29.8511H25.1289V2.42869V51H29.8562V5.92879L32.6095 7.96601L34.2498 9.17907V12.674V51H38.9771V12.1873V9.1765L40.6148 7.96601L43.3682 5.92622V51H48.098V2.42612V0H43.3707Z" fill="black"/>
</g>
<defs>
<clipPath id="clip0_144_8023">
<rect width="122" height="51" fill="white"/>
</clipPath>
</defs>
</svg>
