<svg width="20" height="20" viewBox="0 0 20 20" fill="none" xmlns="http://www.w3.org/2000/svg">
<g opacity="0.6">
<path d="M9.66999 2.4902C12.635 2.26488 15.1837 4.67503 15.4087 7.61382C15.5346 9.25928 14.828 10.6173 14.0581 12.0344C13.5365 12.9945 12.9691 13.9149 12.3618 14.8217L11.3428 16.3235L10.6757 17.2713C10.5601 17.4323 10.4116 17.681 10.2592 17.8015C9.8371 18.0678 9.6398 17.7035 9.43972 17.4302L8.87527 16.6542C8.02484 15.4843 7.18706 14.1846 6.46277 12.9406C5.6841 11.6031 4.77699 10.0183 4.59761 8.4494C4.28515 5.71667 6.28597 3.14368 8.94988 2.5889C9.18796 2.53932 9.42878 2.51702 9.66999 2.4902ZM9.83124 3.34018C8.93542 3.41057 8.17042 3.65013 7.42753 4.16522C6.13683 5.06018 5.30792 6.67393 5.4323 8.25514C5.58792 10.2338 7.69745 13.4228 8.82589 15.0772C9.20468 15.6326 9.58433 16.1906 9.99374 16.724C10.0275 16.6855 10.0638 16.6475 10.0954 16.6074L10.101 16.5982C10.2074 16.426 10.3423 16.2638 10.4594 16.0982C11.7012 14.3437 14.1226 10.7824 14.4998 8.80987C14.854 6.9578 13.9324 4.98214 12.3403 3.99706C11.5827 3.52833 10.7166 3.32811 9.83124 3.34018Z" fill="black"/>
<path d="M9.89027 5.40402C9.99808 5.38719 10.1205 5.40227 10.2286 5.41324C11.4091 5.53313 12.3718 6.48223 12.482 7.67414C12.6218 9.18672 11.576 10.2654 10.1191 10.3998C9.47535 10.4148 8.84523 10.2123 8.35191 9.79191C6.67262 8.36086 7.61996 5.56254 9.89027 5.40402ZM9.89027 6.26313C8.3816 6.40688 7.81055 8.26184 8.94773 9.18379C9.25855 9.43578 9.69191 9.59543 10.0952 9.55293C10.9571 9.51156 11.6842 8.73559 11.6448 7.86738C11.6033 6.95141 10.8235 6.19078 9.89027 6.26313Z" fill="black"/>
</g>
</svg>
